<svg width="400" height="400" viewBox="0 0 400 400" fill="none" xmlns="http://www.w3.org/2000/svg">
<path d="M302.615 85.6923C296.462 94.9231 290.462 103.846 289.385 105.692C288.462 107.692 286.769 109.231 285.692 109.231C284.615 109.231 281.385 111.385 278.615 113.846C274.615 117.538 273.692 119.538 274.308 122.615C274.923 125.692 273.538 128.769 269.231 134.615C266 138.923 261.538 143.692 259.385 145.077C257.231 146.615 255.385 149.077 255.385 150.769C255.385 152.462 249.077 162.923 241.385 174C231.692 187.846 227.846 194.615 228.923 195.692C231.231 198 232.462 196.923 246.308 177.692C262.154 156 263.077 156.308 263.077 182.615C263.077 198.308 263.538 200.923 266.923 207.692C269.077 212 270.308 215.385 269.692 215.538C258.923 216.308 232.462 214.769 224.769 212.769C216.154 210.769 211.692 210.615 190.923 212.154C169.692 213.846 159.692 215.077 130 220C114.154 222.615 60.7693 220.615 56.3077 217.231C51.5385 213.538 39.5385 211.846 24.9231 213.077C16.7693 213.692 8.76926 214.154 7.2308 214.154C0.461566 213.846 2.30772 224.462 9.53849 227.538C12.3077 228.769 16.3077 231.231 18.4616 233.077C20.6154 235.077 24.9231 237.385 28 238.308C31.077 239.385 34.4616 241.231 35.5385 242.462C39.5385 247.231 42.9231 248 48.6154 245.231C56 241.692 65.2308 243.538 85.8462 252.615L100.769 259.077L126.923 260.154C144.154 260.769 156 262 161.538 263.692C166.154 265.077 176.923 266.615 185.385 267.077C195.538 267.692 204.462 269.231 212 271.692C225.385 276.154 232.769 276.308 242.615 272.462C249.385 269.846 252.308 269.692 281.538 271.077C343.385 274 342.154 274.154 357.692 262.154C363.538 257.846 367.077 256.308 374 255.538C384.462 254.308 388.615 251.077 390.769 242.769C393.692 232 386.769 218 376.308 214C373.538 212.923 361.077 215.231 359.077 217.385C354.769 221.538 339.077 209.692 333.538 198.154C324.308 178.769 320 169.077 318 162.769C316.769 158.923 311.077 148.923 305.538 140.769C300 132.615 295.385 124.462 295.385 122.462C295.385 120.615 294.615 118.308 293.538 117.231C291.538 115.231 291.538 115.385 312.923 86.1539C320.308 76 321.538 73.3846 320 71.5385C318.923 70.3077 317.231 69.2308 316.154 69.2308C314.923 69.2308 308.923 76.6154 302.615 85.6923ZM288.462 137.385C289.692 139.231 291.692 147.231 292.923 155.077C295.231 168.923 299.385 179.692 312.462 205.231C314.923 210.154 316.923 214.462 316.615 214.615C314.923 216 298.308 216.462 297.538 215.077C296.923 214.308 294.462 212.615 292 211.692C288.308 210.154 286.769 207.692 283.538 199.077C281.538 193.231 278.769 184.308 277.538 179.231C276.154 174.154 273.846 164.615 272 158.154L268.923 146.308L274.615 138.615C279.385 131.846 280.615 131.077 283.231 132.308C284.769 133.231 287.231 135.538 288.462 137.385Z" fill="black"/>
</svg>
