<svg width="400" height="300" viewBox="0 0 400 300" fill="none" xmlns="http://www.w3.org/2000/svg">
<path d="M181.842 33.6397C178.579 34.3566 177.105 35.0735 172.737 37.9963C170.474 39.5404 167.263 41.4706 165.526 42.2978L162.368 43.8419L135 44.1728C109 44.4485 107.421 44.5588 103.474 45.6617C96.9474 47.5367 93.9474 49.2463 89.8421 53.4375C83.5263 59.7794 82.1053 60 79.2632 55.2022C72.4737 43.6764 60.9474 39.7059 50.3684 45.2757C44 48.6948 40.7895 53.5478 40.7895 59.8345C40.7895 63.4742 41 64.0809 44.2105 70.8639C46.3158 75.2757 48.0526 78.2536 48.7369 78.5845C51.2632 79.8529 51.579 80.5147 51.579 84.2095V87.7941L53.2105 87.4632C54.4737 87.2426 55.3158 87.5183 57 88.7316C60.7895 91.4338 63.8421 92.8125 66.2632 92.8676C68.3684 92.9228 68.6842 92.7022 70.7895 90.2206L73.0526 87.4632L79.8421 87.0772C83.579 86.8566 87.579 86.3603 88.7895 86.0294C91.6842 85.0919 93.3684 85.6433 94.6842 87.9044C96.8947 91.6544 100.737 94.6323 108.737 98.9338C113.263 101.36 118.947 104.945 122.263 107.482C125.368 109.908 129.895 112.831 132.263 114.044C135.895 115.919 137.421 117.132 141.579 121.599C147.632 128.107 151.368 131.471 156.421 134.89C160.316 137.537 171.842 146.967 173.105 148.566C173.737 149.393 169.684 149.448 125.579 149.448H77.3684V154.136V158.823H66.8421H56.3158V213.695V268.566H62.1053H67.8948V219.761V170.956H72.6316H77.3684V215.349V259.798L83.0526 259.632L88.6842 259.467L88.8421 215.184L88.9474 170.956H131.474H173.947L175.421 172.61C176.211 173.493 177.684 174.375 178.684 174.596C180.632 174.982 188.421 173.051 190.368 171.728C191.368 171.066 200.526 170.956 253.684 170.956H315.789V219.761V268.566H321.579H327.368L327.474 215.184L327.632 161.857L332.211 161.691L336.842 161.526L336.947 210.496L337.105 259.467L342.789 259.632L348.421 259.798V204.596V149.448H272.105C224.895 149.448 195.789 149.228 195.789 148.952C195.789 148.621 194.895 147.298 193.842 145.919C192.737 144.54 190.895 141.893 189.789 139.963C188.684 138.033 186.895 135.165 185.895 133.566C182.947 128.934 161.895 108.585 157.737 106.324C155.789 105.331 149.789 99.0992 145.579 93.8051C142.632 90.1103 143.474 88.4007 148.789 87.1875C150.526 86.8014 152.632 85.8088 153.684 84.9816C154.684 84.0992 156.263 83.0514 157.211 82.5551C159.368 81.3419 169.211 80.1286 170.105 80.9558C170.474 81.2316 173.526 82.6654 176.842 84.0992C180.158 85.4779 183.632 87.0772 184.474 87.6286C185.368 88.1801 187.474 89.5588 189.158 90.6617C192.895 93.0331 194.684 93.1433 206.895 91.8198C215.895 90.8823 232.421 89.8897 239.737 89.8897C244.842 89.8345 249.158 89.2831 249.842 88.5661C250.053 88.4007 250.368 86.5808 250.632 84.5956C250.842 82.5551 251.263 80.625 251.632 80.1838C251.947 79.7978 253.474 79.1911 255.105 78.8603C259.316 77.9228 264.105 76.1029 271.842 72.4632L278.684 69.2647L288.947 68.8786C294.579 68.6581 305.368 67.9411 312.895 67.2242C330.579 65.5147 331.947 65.5698 336.474 67.7757C338.421 68.7132 341.158 69.6507 342.526 69.8161C347.158 70.3676 350.263 71.3051 359.368 74.7794C364.421 76.7095 369.158 78.3088 369.947 78.3088C372.316 78.3088 376.316 73.2353 376.316 70.2573C376.316 68.8786 375.632 67.886 372.526 64.6875C368.053 60.2206 367.053 59.5588 361.053 57.7389C354.263 55.6985 352.684 54.8161 349.158 51.2867C345.421 47.4816 344 47.1507 339.789 49.136C338.421 49.7426 335.211 50.5698 332.632 50.9007C327.316 51.5625 323.895 51.1764 307.105 47.7022C294.211 45.0551 288.474 44.7242 282.684 46.2684C279.789 46.9853 276.579 47.4264 273.579 47.4264C271.053 47.4264 264.211 47.9228 258.368 48.5845C249.105 49.5772 247.684 49.5772 246.632 48.9154C246 48.4742 243.316 47.9228 240.526 47.7022C233.579 47.1507 227.947 46.1029 222.053 44.1728C219.263 43.2904 215.842 42.4081 214.421 42.1875C213 41.9669 209.053 40.3676 205.526 38.5478C202.053 36.7831 197.684 34.9632 195.842 34.4669C191.789 33.3639 184.737 32.9779 181.842 33.6397Z" fill="black"/>
</svg>
