<svg width="300" height="400" viewBox="0 0 300 400" fill="none" xmlns="http://www.w3.org/2000/svg">
<path d="M146.265 34.0571C144.608 39.9589 142.398 40.2695 106.764 39.6482C76.9316 39.3376 68.3685 38.0951 65.8824 34.6783C63.3963 30.6403 62.0152 30.9509 56.4906 37.1633C50.966 43.3757 50.6897 44.6181 54.8332 47.1031C58.7004 49.5881 59.2529 64.8084 59.2529 208.315C59.2529 333.805 60.0816 366.73 62.8439 365.798C65.3299 364.556 66.4349 329.145 66.9873 205.519L67.5398 46.4819H75.2742C86.5997 46.4819 89.6382 51.7624 89.6382 71.3314C89.6382 80.9606 91.2956 91.211 93.2292 94.0066C96.2677 98.9765 97.6489 98.9765 110.079 94.9384C117.537 92.4535 124.443 90.9004 125.548 91.5216C126.653 92.1429 129.139 100.53 131.073 109.848C134.111 124.758 134.111 130.038 129.968 149.607C124.719 175.389 124.996 200.86 130.244 203.034C132.178 203.966 133.835 207.383 133.835 210.799C133.835 214.216 137.15 225.399 141.017 235.96L148.475 254.907L142.122 262.362C136.597 268.885 136.321 270.749 139.636 275.408C141.846 278.514 145.161 282.242 147.094 283.484C149.028 285.037 149.856 288.765 149.028 292.182C146.818 299.947 152.895 299.947 167.259 291.871L178.308 285.348L169.745 273.855C160.077 260.499 159.248 251.18 166.983 239.066C169.745 234.407 173.888 223.845 175.822 215.459C177.756 207.072 179.966 199.617 180.794 198.685C182.452 197.132 180.518 172.283 176.375 137.493C174.441 121.03 179.137 91.5216 184.109 88.1048C185.49 87.173 188.805 88.4154 191.567 91.211C194.33 94.0066 200.959 96.1809 206.207 96.1809C215.047 96.1809 216.152 95.2491 217.809 86.5517C218.638 81.2712 219.466 71.642 219.466 65.4296C219.466 51.7624 223.334 46.4819 233.83 46.4819H241.565L242.117 205.519C242.67 329.145 243.775 364.556 246.537 365.798C249.023 366.73 249.852 333.805 249.852 208.315C249.852 69.7783 250.404 49.2774 253.995 47.7243C256.205 46.4819 258.139 44.6181 258.139 43.065C258.139 41.5119 256.205 40.2695 253.995 40.2695C251.785 40.2695 249.852 38.0951 249.852 35.6102C249.852 29.7084 244.603 29.3978 242.67 35.2996C241.289 39.027 233.83 39.9589 205.103 39.9589C171.955 40.2695 168.64 39.6482 165.049 34.0571C159.801 25.981 148.475 25.981 146.265 34.0571ZM144.608 53.3155C147.647 62.634 145.713 66.0509 137.979 63.8765C133.835 62.634 126.377 64.8084 118.366 69.4677C110.908 73.8163 104.002 76.6119 103.173 75.6801C102.069 75.0588 100.411 70.0889 99.3063 64.8084C96.2677 50.2093 101.24 46.4819 123.338 46.4819C140.465 46.4819 142.398 47.1031 144.608 53.3155ZM207.865 50.2093C212.561 55.4898 212.008 66.6721 206.76 71.642C203.169 75.0588 200.683 74.4376 190.739 68.2252C183.28 63.8765 176.375 61.7022 172.784 62.9447C165.325 65.119 162.011 57.9748 166.983 51.1411C171.126 45.2394 202.893 44.6181 207.865 50.2093ZM161.458 212.663C161.458 216.391 159.801 221.361 157.591 223.224C152.066 228.505 149.304 217.944 151.79 201.481L153.724 188.745L157.591 197.132C159.801 201.791 161.458 208.625 161.458 212.663Z" fill="black"/>
<line x1="61" y1="366.002" x2="61" y2="40" stroke="black" stroke-width="12"/>
<line x1="247" y1="366" x2="247" y2="40" stroke="black" stroke-width="12"/>
<ellipse cx="154.5" cy="47" rx="14.5" ry="19" fill="black"/>
<line x1="67" y1="44.5" x2="147" y2="44.5" stroke="black" stroke-width="5"/>
<line x1="169" y1="48.5" x2="249" y2="48.5" stroke="black" stroke-width="5"/>
</svg>
